G04*
G04 #@! TF.GenerationSoftware,Altium Limited,Altium Designer,21.5.1 (32)*
G04*
G04 Layer_Physical_Order=2*
G04 Layer_Color=16711680*
%FSLAX25Y25*%
%MOIN*%
G70*
G04*
G04 #@! TF.SameCoordinates,7F1FC79F-1769-4250-B25E-F515DFE62234*
G04*
G04*
G04 #@! TF.FilePolarity,Positive*
G04*
G01*
G75*
%ADD13R,0.03150X0.03150*%
%ADD14R,0.05118X0.02756*%
%ADD19C,0.01968*%
%ADD20O,0.07874X0.06299*%
%ADD21R,0.07874X0.06299*%
%ADD22C,0.02362*%
G36*
X61263Y60365D02*
X60952Y59900D01*
X60784Y59055D01*
Y50462D01*
X59252D01*
X59039Y50419D01*
X51968D01*
Y41758D01*
X61263D01*
Y39728D01*
X60763Y39602D01*
X59967Y40213D01*
X58957Y40631D01*
X57874Y40774D01*
X57587D01*
Y36589D01*
Y32403D01*
X57874D01*
X58957Y32546D01*
X59437Y32744D01*
X60784Y31397D01*
Y29528D01*
X60952Y28683D01*
X61263Y28218D01*
Y3937D01*
X4176D01*
Y74803D01*
X61263D01*
Y60365D01*
D02*
G37*
%LPC*%
G36*
X56587Y40774D02*
X56299D01*
X55216Y40631D01*
X54207Y40213D01*
X53340Y39548D01*
X52675Y38681D01*
X52256Y37672D01*
X52180Y37089D01*
X56587D01*
Y40774D01*
D02*
G37*
G36*
Y36089D02*
X52180D01*
X52256Y35505D01*
X52675Y34496D01*
X53340Y33629D01*
X54207Y32964D01*
X55216Y32546D01*
X56299Y32403D01*
X56587D01*
Y36089D01*
D02*
G37*
G36*
X31996Y25776D02*
Y24122D01*
X33650D01*
X33345Y24858D01*
X32732Y25471D01*
X31996Y25776D01*
D02*
G37*
G36*
X30996D02*
X30261Y25471D01*
X29647Y24858D01*
X29342Y24122D01*
X30996D01*
Y25776D01*
D02*
G37*
G36*
X33650Y23122D02*
X31996D01*
Y21468D01*
X32732Y21773D01*
X33345Y22387D01*
X33650Y23122D01*
D02*
G37*
G36*
X30996D02*
X29342D01*
X29647Y22387D01*
X30261Y21773D01*
X30996Y21468D01*
Y23122D01*
D02*
G37*
%LPD*%
D13*
X70866Y28248D02*
D03*
Y34744D02*
D03*
D14*
Y60827D02*
D03*
Y53347D02*
D03*
D19*
X61839Y48254D02*
X62992Y49407D01*
X59252Y48254D02*
X61839D01*
X62992Y49407D02*
Y59055D01*
X64961Y61024D01*
X70669D01*
X57087Y36589D02*
X58715D01*
X62992Y32311D01*
Y29528D02*
Y32311D01*
X64272Y28248D02*
X70866D01*
X62992Y29528D02*
X64272Y28248D01*
X70866Y34744D02*
Y53347D01*
X70669Y61024D02*
X70866Y60827D01*
X57087Y46089D02*
X59252Y48254D01*
D20*
X57087Y36589D02*
D03*
D21*
Y46089D02*
D03*
D22*
X31496Y23622D02*
D03*
M02*
