G04*
G04 #@! TF.GenerationSoftware,Altium Limited,Altium Designer,21.5.1 (32)*
G04*
G04 Layer_Color=32896*
%FSLAX25Y25*%
%MOIN*%
G70*
G04*
G04 #@! TF.SameCoordinates,7F1FC79F-1769-4250-B25E-F515DFE62234*
G04*
G04*
G04 #@! TF.FilePolarity,Positive*
G04*
G01*
G75*
%ADD10C,0.00787*%
%ADD11C,0.01000*%
%ADD12R,0.06299X0.01968*%
D10*
X67716Y23622D02*
X74016D01*
X67716D02*
Y37795D01*
X74016D01*
Y23622D02*
Y37795D01*
X66929Y50394D02*
Y63779D01*
Y50394D02*
X74803D01*
X66929Y63779D02*
X74803D01*
Y50394D02*
Y63779D01*
D11*
X75864Y65899D02*
Y71897D01*
X72865D01*
X71866Y70897D01*
Y68898D01*
X72865Y67898D01*
X75864D01*
X73865D02*
X71866Y65899D01*
X65868D02*
X69867D01*
X65868Y69897D01*
Y70897D01*
X66867Y71897D01*
X68867D01*
X69867Y70897D01*
X75864Y20716D02*
Y14717D01*
X72865D01*
X71866Y15717D01*
Y19716D01*
X72865Y20716D01*
X75864D01*
X65868Y14717D02*
X69867D01*
X65868Y18716D01*
Y19716D01*
X66867Y20716D01*
X68867D01*
X69867Y19716D01*
D12*
X70866Y24606D02*
D03*
M02*
