G04*
G04 #@! TF.GenerationSoftware,Altium Limited,Altium Designer,21.5.1 (32)*
G04*
G04 Layer_Color=65535*
%FSLAX25Y25*%
%MOIN*%
G70*
G04*
G04 #@! TF.SameCoordinates,7F1FC79F-1769-4250-B25E-F515DFE62234*
G04*
G04*
G04 #@! TF.FilePolarity,Positive*
G04*
G01*
G75*
%ADD10C,0.00787*%
%ADD11C,0.01000*%
%ADD12R,0.06299X0.01968*%
D10*
X45587Y36339D02*
X51587D01*
Y46339D01*
X45587D02*
X51587D01*
X45587Y51339D02*
X68587D01*
X45587Y31339D02*
Y51339D01*
Y31339D02*
X68587D01*
Y51339D01*
X16535Y17028D02*
X22835D01*
Y31201D01*
X16535D02*
X22835D01*
X16535Y17028D02*
Y31201D01*
X23622Y44685D02*
Y58071D01*
X15748Y44685D02*
X23622D01*
X15748Y58071D02*
X23622D01*
X15748Y44685D02*
Y58071D01*
D11*
X70587Y45339D02*
X72586D01*
X71586D01*
Y51337D01*
X70587Y50337D01*
X38402Y36433D02*
X42400D01*
X38402Y46306D02*
X42400D01*
X40401Y48306D02*
Y44307D01*
X5844Y48182D02*
Y54180D01*
X8843D01*
X9843Y53180D01*
Y51181D01*
X8843Y50181D01*
X5844D01*
X7843D02*
X9843Y48182D01*
X11842D02*
X13841D01*
X12842D01*
Y54180D01*
X11842Y53180D01*
X50168Y61297D02*
X48169D01*
X49168D01*
Y56299D01*
X48169Y55299D01*
X47169D01*
X46169Y56299D01*
X52167Y55299D02*
X54167D01*
X53167D01*
Y61297D01*
X52167Y60298D01*
X5844Y27901D02*
Y21903D01*
X8843D01*
X9843Y22902D01*
Y26901D01*
X8843Y27901D01*
X5844D01*
X11842Y21903D02*
X13841D01*
X12842D01*
Y27901D01*
X11842Y26901D01*
D12*
X19685Y18012D02*
D03*
M02*
